<svg xmlns="http://www.w3.org/2000/svg" width="18" height="18" viewBox="0 0 18 18" fill="none">
    <rect x="-0.5" y="0.5" width="12.9996" height="13.0001" rx="2.5" transform="matrix(-1 0 0 1 13 4)" stroke="#292929"/>
    <path d="M13 2C14.6569 2 16 3.34315 16 5V13L15.9961 13.1543C15.9307 14.4404 15.0554 15.5124 13.8701 15.8711C13.9538 15.5952 14 15.3023 14 14.999V14.7295C14.5971 14.3836 14.9998 13.7396 15 13V5C15 3.89543 14.1046 3 13 3H5C4.25992 3 3.61541 3.40247 3.26953 4H3C2.69695 4 2.40467 4.04534 2.12891 4.12891C2.48779 2.94381 3.55964 2.06907 4.8457 2.00391L5 2H13Z" fill="#292929"/>
    <path d="M15 0C16.6569 1.6109e-08 18 1.34315 18 3V11L17.9961 11.1543C17.9307 12.4404 17.0554 13.5124 15.8701 13.8711C15.9538 13.5952 16 13.3023 16 12.999V12.7295C16.5971 12.3836 16.9998 11.7396 17 11V3C17 1.89543 16.1046 1 15 1H7C6.25992 1 5.61541 1.40247 5.26953 2H5C4.69695 2 4.40467 2.04534 4.12891 2.12891C4.48779 0.943813 5.55964 0.0690727 6.8457 0.00390625L7 0H15Z" fill="#292929"/>
</svg>