<svg xmlns="http://www.w3.org/2000/svg" width="20" height="20" viewBox="0 0 20 20" fill="none">
    <path d="M1 2C1 1.45 1.45 1 2 1H5V0H2C0.9 0 0 0.9 0 2V5H1V2Z" fill="#292929"/>
    <path d="M18 0H15V1H18C18.55 1 19 1.45 19 2V5H20V2C20 0.9 19.1 0 18 0Z" fill="#292929"/>
    <path d="M1 18V15H0V18C0 19.1 0.9 20 2 20H5V19H2C1.45 19 1 18.55 1 18Z" fill="#292929"/>
    <path d="M19 18C19 18.55 18.55 19 18 19H15V20H18C19.1 20 20 19.1 20 18V15H19V18Z" fill="#292929"/>
    <path d="M17 15.0098V13H16V15.0098C16 15.5598 15.55 16.0098 15 16.0098H5C4.45 16.0098 4 15.5598 4 15.0098V13H3V15.0098C3 16.1098 3.89 17.0098 5 17.0098H15C16.1 17.0098 17 16.1098 17 15.0098Z" fill="#292929"/>
    <path d="M3 5.00977V8.00977H4V5.00977C4 4.45977 4.45 4.00977 5 4.00977H12V8.00977H16H17V7.83819C17 7.30776 16.789 6.7988 16.414 6.42372C15.2858 5.2956 14.4807 4.49044 13.293 3.30275C13.1055 3.11522 12.851 3.00977 12.5858 3.00977H5C3.89 3.00977 3 3.89977 3 5.00977ZM15.59 6.99976H13V4.41976L15.59 6.99976Z" fill="#292929"/>
    <path d="M20 10.0098H0V11.0098H20V10.0098Z" fill="#292929"/>
</svg>